<?xml version="1.0" standalone="no"?>
<!DOCTYPE svg PUBLIC "-//W3C//DTD SVG 20010904//EN"
 "http://www.w3.org/TR/2001/REC-SVG-20010904/DTD/svg10.dtd">
<svg version="1.0" xmlns="http://www.w3.org/2000/svg"
 width="64.000000pt" height="64.000000pt" viewBox="0 0 64.000000 64.000000"
 preserveAspectRatio="xMidYMid meet">

<g transform="translate(0.000000,64.000000) scale(0.100000,-0.100000)"
fill="#000000" stroke="none">
<path d="M106 581 c15 -25 25 -31 54 -31 30 0 39 5 55 33 17 29 17 31 1 18
-14 -12 -21 -12 -38 -2 -16 10 -23 10 -35 0 -12 -10 -19 -10 -35 0 -20 12 -20
12 -2 -18z"/>
<path d="M444 535 c-19 -15 -19 -15 0 -30 11 -8 36 -15 56 -15 20 0 45 7 56
15 19 15 19 15 0 30 -11 8 -36 15 -56 15 -20 0 -45 -7 -56 -15z"/>
<path d="M98 486 c-36 -56 -36 -90 1 -127 40 -39 82 -39 122 0 37 37 37 71 2
127 -24 38 -33 44 -63 44 -30 0 -39 -6 -62 -44z m82 -13 c28 -25 25 -33 -10
-26 -18 3 -30 1 -30 -5 0 -6 12 -12 28 -14 21 -2 28 -9 30 -30 2 -20 -1 -28
-12 -28 -8 0 -16 -5 -18 -12 -3 -7 -12 -5 -26 8 -30 25 -28 35 8 28 18 -4 30
-2 30 4 0 6 -12 12 -27 14 -22 2 -29 9 -31 31 -2 19 1 27 12 27 9 0 16 5 16
10 0 14 7 13 30 -7z"/>
<path d="M430 481 c0 -5 5 -13 10 -16 6 -3 10 -2 10 4 0 5 -4 13 -10 16 -5 3
-10 2 -10 -4z"/>
<path d="M557 483 c-4 -3 -7 -11 -7 -17 0 -6 5 -5 12 2 6 6 9 14 7 17 -3 3 -9
2 -12 -2z"/>
<path d="M284 455 c-19 -15 -19 -15 0 -30 11 -8 36 -15 56 -15 20 0 45 7 56
15 19 15 19 15 0 30 -11 8 -36 15 -56 15 -20 0 -45 -7 -56 -15z"/>
<path d="M470 460 c0 -5 5 -10 10 -10 6 0 10 5 10 10 0 6 -4 10 -10 10 -5 0
-10 -4 -10 -10z"/>
<path d="M510 460 c0 -5 5 -10 10 -10 6 0 10 5 10 10 0 6 -4 10 -10 10 -5 0
-10 -4 -10 -10z"/>
<path d="M430 441 c0 -5 5 -13 10 -16 6 -3 10 -2 10 4 0 5 -4 13 -10 16 -5 3
-10 2 -10 -4z"/>
<path d="M557 443 c-4 -3 -7 -11 -7 -17 0 -6 5 -5 12 2 6 6 9 14 7 17 -3 3 -9
2 -12 -2z"/>
<path d="M470 420 c0 -5 5 -10 10 -10 6 0 10 5 10 10 0 6 -4 10 -10 10 -5 0
-10 -4 -10 -10z"/>
<path d="M510 420 c0 -5 5 -10 10 -10 6 0 10 5 10 10 0 6 -4 10 -10 10 -5 0
-10 -4 -10 -10z"/>
<path d="M270 401 c0 -5 5 -13 10 -16 6 -3 10 -2 10 4 0 5 -4 13 -10 16 -5 3
-10 2 -10 -4z"/>
<path d="M397 403 c-4 -3 -7 -11 -7 -17 0 -6 5 -5 12 2 6 6 9 14 7 17 -3 3 -9
2 -12 -2z"/>
<path d="M430 401 c0 -5 5 -13 10 -16 6 -3 10 -2 10 4 0 5 -4 13 -10 16 -5 3
-10 2 -10 -4z"/>
<path d="M557 403 c-4 -3 -7 -11 -7 -17 0 -6 5 -5 12 2 6 6 9 14 7 17 -3 3 -9
2 -12 -2z"/>
<path d="M310 380 c0 -5 5 -10 10 -10 6 0 10 5 10 10 0 6 -4 10 -10 10 -5 0
-10 -4 -10 -10z"/>
<path d="M350 380 c0 -5 5 -10 10 -10 6 0 10 5 10 10 0 6 -4 10 -10 10 -5 0
-10 -4 -10 -10z"/>
<path d="M470 380 c0 -5 5 -10 10 -10 6 0 10 5 10 10 0 6 -4 10 -10 10 -5 0
-10 -4 -10 -10z"/>
<path d="M510 380 c0 -5 5 -10 10 -10 6 0 10 5 10 10 0 6 -4 10 -10 10 -5 0
-10 -4 -10 -10z"/>
<path d="M270 361 c0 -5 5 -13 10 -16 6 -3 10 -2 10 4 0 5 -4 13 -10 16 -5 3
-10 2 -10 -4z"/>
<path d="M397 363 c-4 -3 -7 -11 -7 -17 0 -6 5 -5 12 2 6 6 9 14 7 17 -3 3 -9
2 -12 -2z"/>
<path d="M430 361 c0 -5 5 -13 10 -16 6 -3 10 -2 10 4 0 5 -4 13 -10 16 -5 3
-10 2 -10 -4z"/>
<path d="M557 363 c-4 -3 -7 -11 -7 -17 0 -6 5 -5 12 2 6 6 9 14 7 17 -3 3 -9
2 -12 -2z"/>
<path d="M310 340 c0 -5 5 -10 10 -10 6 0 10 5 10 10 0 6 -4 10 -10 10 -5 0
-10 -4 -10 -10z"/>
<path d="M350 340 c0 -5 5 -10 10 -10 6 0 10 5 10 10 0 6 -4 10 -10 10 -5 0
-10 -4 -10 -10z"/>
<path d="M470 340 c0 -5 5 -10 10 -10 6 0 10 5 10 10 0 6 -4 10 -10 10 -5 0
-10 -4 -10 -10z"/>
<path d="M510 340 c0 -5 5 -10 10 -10 6 0 10 5 10 10 0 6 -4 10 -10 10 -5 0
-10 -4 -10 -10z"/>
<path d="M30 300 c0 -6 103 -10 290 -10 187 0 290 4 290 10 0 6 -103 10 -290
10 -187 0 -290 -4 -290 -10z"/>
<path d="M76 248 c18 -60 62 -82 112 -56 29 14 60 18 159 18 70 0 124 -4 128
-10 13 -21 95 36 95 66 0 2 -113 4 -251 4 l-250 0 7 -22z m44 -8 c0 -5 -4 -10
-10 -10 -5 0 -10 5 -10 10 0 6 5 10 10 10 6 0 10 -4 10 -10z m40 0 c0 -5 -4
-10 -10 -10 -5 0 -10 5 -10 10 0 6 5 10 10 10 6 0 10 -4 10 -10z m40 0 c0 -5
-4 -10 -10 -10 -5 0 -10 5 -10 10 0 6 5 10 10 10 6 0 10 -4 10 -10z"/>
<path d="M524 190 c-28 -15 -62 -34 -75 -43 -27 -19 -179 -25 -179 -7 0 6 32
10 76 10 73 0 114 11 114 30 0 14 -226 13 -253 -1 -12 -6 -30 -19 -41 -28 -17
-15 -15 -17 40 -42 53 -24 62 -26 86 -13 17 9 58 14 109 14 72 0 87 3 134 30
59 34 80 54 70 70 -9 14 -23 11 -81 -20z"/>
<path d="M75 82 l-36 -47 102 -3 c57 -1 109 0 116 2 20 8 15 26 -9 35 -13 5
-48 21 -80 35 l-56 25 -37 -47z"/>
</g>
</svg>
