<svg xmlns="http://www.w3.org/2000/svg" height="1.9em" viewBox="0 0 615 512"><!--!Font Awesome Pro 6.5.1 by @fontawesome - https://fontawesome.com License - https://fontawesome.com/license (Commercial License) Copyright 2023 Fonticons, Inc.--><path opacity="1" fill="#000000" d="M16.5 160.4L82.8 99C88.4 93.5 93.1 88.6 97 84.3c3.9-4.4 6.8-8.6 8.8-12.8c2-4.2 3-8.8 3-13.7c0-5.5-1.2-10.2-3.7-14.1c-2.5-4-5.9-7.1-10.2-9.2c-4.3-2.2-9.2-3.3-14.6-3.3c-5.7 0-10.7 1.2-14.9 3.5s-7.5 5.6-9.8 9.9s-3.5 9.4-3.5 15.4H14.7c0-12.2 2.8-22.8 8.3-31.7s13.2-15.9 23.2-20.8S67.5 0 80.5 0c13.3 0 24.9 2.4 34.8 7.1c9.9 4.7 17.7 11.2 23.2 19.5s8.3 17.8 8.3 28.5c0 7-1.4 14-4.2 20.8c-2.7 6.8-7.6 14.5-14.6 22.8c-7 8.3-16.9 18.3-29.7 29.9L71.1 155.3v1.3h78.2v32.2H16.5V160.4zm193.8 23.9c-10.5-4.7-18.9-11.2-25-19.5c-6.1-8.3-9.2-17.9-9.4-28.7h39.6c.2 4.5 1.7 8.5 4.5 12c2.8 3.4 6.5 6 11.1 7.9s9.8 2.8 15.5 2.8c6 0 11.3-1.1 15.9-3.2s8.2-5.1 10.8-8.8s3.9-8.1 3.9-13c0-5-1.4-9.4-4.2-13.2c-2.7-3.9-6.7-6.9-11.8-9.1c-5.1-2.2-11.2-3.3-18.2-3.3H225.8V79.4h17.4c5.9 0 11.2-1 15.7-3.1c4.6-2.1 8.2-4.9 10.7-8.5c2.5-3.7 3.8-8 3.8-12.9c0-4.7-1.1-8.8-3.4-12.3c-2.2-3.6-5.3-6.4-9.3-8.4c-3.9-2-8.5-3-13.8-3c-5.3 0-10.2 1-14.6 2.9c-4.4 1.9-8 4.6-10.6 8.1s-4.1 7.6-4.3 12.4H179.7c.2-10.7 3.2-20.2 9.2-28.4s13.9-14.6 24-19.2c10.1-4.7 21.5-7 34.3-7c12.8 0 24.1 2.3 33.7 7s17.1 11 22.5 18.9c5.4 7.9 8.1 16.7 8 26.5c.1 10.4-3.2 19.1-9.7 26.1c-6.5 7-14.9 11.4-25.4 13.3v1.5c13.7 1.8 24.1 6.5 31.3 14.3c7.2 7.7 10.8 17.3 10.7 28.9c.1 10.6-3 20-9.2 28.3c-6.1 8.2-14.6 14.7-25.4 19.5s-23.2 7.1-37.1 7.1c-13.6 0-25.7-2.3-36.3-7zm217.2 4.5H388.1V39.9h-1.1L344.4 66.6V31.7L390.5 2.5h37V188.7zm88-2.3c-8.8-3.2-16.8-8.3-23.8-15.4s-12.6-16.5-16.7-28.2c-4.1-11.7-6.1-26.1-6.1-43.1c.1-15.6 1.8-29.6 5.4-41.9c3.6-12.4 8.7-22.8 15.3-31.5c6.7-8.6 14.6-15.2 23.9-19.6C522.7 2.3 533.1 0 544.6 0C557 0 568 2.4 577.5 7.3c9.5 4.8 17.2 11.3 22.9 19.5c5.8 8.2 9.3 17.5 10.5 27.7H572.1c-1.5-6.5-4.7-11.6-9.5-15.3s-10.8-5.5-18-5.5c-12.1 0-21.3 5.3-27.6 15.8c-6.2 10.5-9.4 24.9-9.5 43h1.3c2.8-5.5 6.5-10.2 11.3-14.1c4.8-3.9 10.2-6.9 16.3-9c6.1-2.1 12.6-3.2 19.4-3.2c11 0 20.8 2.6 29.5 7.8c8.6 5.2 15.4 12.2 20.4 21.3s7.5 19.4 7.5 31c0 12.6-2.9 23.8-8.8 33.6c-5.8 9.8-14 17.5-24.5 23.1c-10.4 5.5-22.5 8.2-36.4 8.2c-9.6-.1-18.8-1.7-27.7-4.8zM559.3 156c4.8-2.9 8.5-6.8 11.3-11.8s4.1-10.5 4.1-16.7s-1.4-11.7-4.1-16.6c-2.7-4.9-6.4-8.8-11.1-11.7s-10.1-4.4-16.2-4.4c-4.5 0-8.8 .8-12.6 2.5c-3.8 1.7-7.2 4.1-10.1 7.1c-2.9 3-5.1 6.5-6.7 10.5c-1.6 3.9-2.5 8.2-2.5 12.6c0 6 1.4 11.5 4.1 16.5c2.8 5 6.5 8.9 11.3 11.9c4.8 3 10.2 4.5 16.3 4.5s11.5-1.5 16.3-4.4zM51.5 256h256c28.3 0 51.2 22.9 51.2 51.2s-22.9 51.2-51.2 51.2H51.5c-28.3 0-51.2-22.9-51.2-51.2S23.2 256 51.5 256zm409.6 0H563.5c28.3 0 51.2 22.9 51.2 51.2s-22.9 51.2-51.2 51.2H461.1c-28.3 0-51.2-22.9-51.2-51.2s22.9-51.2 51.2-51.2zM.3 460.8c0-28.3 22.9-51.2 51.2-51.2h512c28.3 0 51.2 22.9 51.2 51.2s-22.9 51.2-51.2 51.2H51.5C23.2 512 .3 489.1 .3 460.8z"/></svg>