<svg xmlns="http://www.w3.org/2000/svg" height="12" width="12" viewBox="0 0 512 512"><!--!Font Awesome Pro 6.5.1 by @fontawesome - https://fontawesome.com License - https://fontawesome.com/license (Commercial License) Copyright 2024 Fonticons, Inc.--><path class="fa-secondary" opacity="0.4" fill="#ff0000" d="M256 512A256 256 0 1 0 256 0a256 256 0 1 0 0 512zm0-384c13.3 0 24 10.7 24 24V264c0 13.3-10.7 24-24 24s-24-10.7-24-24V152c0-13.3 10.7-24 24-24zM224 352a32 32 0 1 1 64 0 32 32 0 1 1 -64 0z"/><path class="fa-primary" opacity="1" fill="#ff0000" d="M280 152c0-13.3-10.7-24-24-24s-24 10.7-24 24V264c0 13.3 10.7 24 24 24s24-10.7 24-24V152zM256 384a32 32 0 1 0 0-64 32 32 0 1 0 0 64z"/></svg>