<svg xmlns="http://www.w3.org/2000/svg" height="32" width="40" viewBox="0 0 640 512"><!--!Font Awesome Pro 6.5.1 by @fontawesome - https://fontawesome.com License - https://fontawesome.com/license (Commercial License) Copyright 2023 Fonticons, Inc.--><path d="M426.7 170.7c-11.8 0-21.3-9.6-21.3-21.3V102.4H362.7c-11.8 0-21.3-9.6-21.3-21.3s9.6-21.3 21.3-21.3h42.7V21.3C405.3 9.6 414.9 0 426.7 0S448 9.6 448 21.3V59.7h42.7c11.8 0 21.3 9.6 21.3 21.3s-9.6 21.3-21.3 21.3H448v46.9c0 11.8-9.6 21.3-21.3 21.3zM213.3 209.1c0-11.8 9.6-21.3 21.3-21.3h42.7V149.3c0-11.8 9.6-21.3 21.3-21.3s21.3 9.6 21.3 21.3v38.4h42.7c11.8 0 21.3 9.6 21.3 21.3s-9.6 21.3-21.3 21.3H320v46.9c0 11.8-9.6 21.3-21.3 21.3s-21.3-9.6-21.3-21.3V230.4H234.7c-11.8 0-21.3-9.6-21.3-21.3zm277.3-21.3h42.7V149.3c0-11.8 9.6-21.3 21.3-21.3s21.3 9.6 21.3 21.3v38.4h42.7c11.8 0 21.3 9.6 21.3 21.3s-9.6 21.3-21.3 21.3H576v46.9c0 11.8-9.6 21.3-21.3 21.3s-21.3-9.6-21.3-21.3V230.4H490.7c-11.8 0-21.3-9.6-21.3-21.3s9.6-21.3 21.3-21.3zM.7 356.8H103.4v27H33.5v37H96.6v27H33.5V512H.7V356.8zM158.3 512H125.5V356.8h32.8V512zm89-102.3h1.2L280 356.8h37l-47.3 77.6L318.1 512H280.4l-31.8-53h-1.2l-31.8 53H177.9l48.6-77.6-47.7-77.6H216l31.3 52.9zm90.5-52.9H442.3v27H370.6v37h66.4v27H370.6v37h72v27H337.8V356.8zM468.4 512V356.8h55.5c15.6 0 29 3.1 40.3 9.3c11.3 6.2 19.9 15 26 26.6c6.1 11.6 9.2 25.4 9.2 41.5c0 16.2-3.1 30.1-9.2 41.7c-6.1 11.6-14.8 20.5-26.1 26.7c-11.3 6.2-24.8 9.3-40.6 9.3h-55zM522 483.9c9.7 0 17.9-1.7 24.5-5.2c6.7-3.5 11.7-8.9 15-16.1c3.4-7.3 5.1-16.8 5.1-28.3c0-11.5-1.7-20.8-5.1-28.1c-3.3-7.3-8.3-12.6-14.9-16.1s-14.8-5.2-24.5-5.2H501.2v98.9H522z"/></svg>