<?xml version="1.0" encoding="iso-8859-1"?>
<!-- Uploaded to: SVG Repo, www.svgrepo.com, Generator: SVG Repo Mixer Tools -->
<!DOCTYPE svg PUBLIC "-//W3C//DTD SVG 1.1//EN" "http://www.w3.org/Graphics/SVG/1.1/DTD/svg11.dtd">
<svg fill="#000000" version="1.1" id="Capa_1" xmlns="http://www.w3.org/2000/svg" xmlns:xlink="http://www.w3.org/1999/xlink" 
	 width="50" height="50" opacity="1" viewBox="0 0 204.875 204.875"
	 xml:space="preserve">
<g>
	<path d="M179.143,104.478c6.181-4.165,10.437-12.358,10.437-19.735c0-10.424-8.445-18.861-18.857-18.861
		c-1.163,0-2.277,0.137-3.374,0.344c0.006,0,0.013-0.009,0.019-0.009c-4.299-6.963-12.422-13.616-22.365-16.13
		c6.18-4.165,10.431-12.357,10.431-19.735c0-10.424-8.439-18.861-18.853-18.861c-10.412,0-18.857,8.442-18.857,18.861
		c0,7.377,4.256,15.57,10.431,19.735c-9.944,2.515-18.058,9.167-22.366,16.13c-1.099-0.192-2.208-0.335-3.355-0.335
		c-1.148,0-2.256,0.137-3.355,0.335c-4.302-6.963-12.419-13.616-22.365-16.13c6.18-4.165,10.431-12.357,10.431-19.735
		c0-10.424-8.443-18.861-18.855-18.861c-10.412,0-18.855,8.442-18.855,18.861c0,7.377,4.253,15.57,10.431,19.735
		c-9.944,2.515-18.058,9.167-22.366,16.13c0.006,0,0.012,0.009,0.018,0.009c-1.096-0.201-2.213-0.344-3.373-0.344
		c-10.413,0-18.855,8.443-18.855,18.861c0,7.377,4.253,15.57,10.434,19.735C10.948,108.223,0,121.046,0,130.558
		c0,5.608,17.071,8.427,34.148,8.427l-9.563-9.572l8.056-19.467h-0.119l-3.124-3.586c1.516,0.548,3.093,0.877,4.725,0.877
		c1.635,0,3.212-0.329,4.716-0.865l-3.118,3.574h-0.088l8.056,19.467l-9.566,9.572c5.301,0,10.595-0.273,15.391-0.815
		c0-0.013,0.006-0.024,0.006-0.036c-0.018,0.347-0.106,0.663-0.106,1.01c0,7.375,4.253,15.564,10.431,19.729
		c-14.769,3.745-25.721,16.568-25.721,26.073c0,5.627,17.074,8.439,34.151,8.439l-9.563-9.572l8.056-19.473h-0.094l-3.124-3.58
		c1.513,0.535,3.094,0.877,4.726,0.877c1.635,0,3.212-0.329,4.713-0.877l-3.118,3.58h-0.085l8.056,19.473l-9.566,9.572
		c17.074,0,34.151-2.812,34.151-8.439c0-9.499-10.948-22.328-25.721-26.073c6.181-4.165,10.431-12.354,10.431-19.729
		c0-10.424-8.442-18.863-18.855-18.863c-1.154,0-2.262,0.134-3.355,0.341c-4.302-6.966-12.419-13.628-22.366-16.137
		c6.181-4.165,10.434-12.357,10.434-19.735c0-0.334-0.083-0.648-0.101-0.971v0.006c4.789,0.536,10.086,0.81,15.387,0.81
		l-9.563-9.572l8.056-19.467h-0.095l-3.13-3.589c1.513,0.542,3.094,0.88,4.726,0.88c1.635,0,3.212-0.332,4.713-0.874l-3.118,3.577
		h-0.085l8.056,19.467l-9.566,9.572c5.3,0,10.601-0.273,15.39-0.81c-0.021,0.329-0.101,0.637-0.101,0.965
		c0,7.377,4.253,15.57,10.431,19.735c-7.35,1.857-13.744,5.974-18.319,10.796c10.077,3.143,17.46,12.367,17.652,23.419
		c2.968,0.183,6.028,0.286,9.097,0.286l-9.566-9.572l8.056-19.467h-0.091l-3.124-3.58c1.513,0.535,3.09,0.877,4.725,0.877
		c1.635,0,3.212-0.329,4.713-0.877l-3.118,3.58h-0.085l8.056,19.467l-9.572,9.578c3.069,0,6.129-0.098,9.098-0.279
		c0.194-11.046,7.574-20.289,17.652-23.42c-4.573-4.828-10.979-8.95-18.319-10.802c6.178-4.165,10.434-12.357,10.434-19.735
		c0-0.334-0.085-0.642-0.104-0.965c4.792,0.536,10.09,0.81,15.388,0.81l-9.561-9.572l8.05-19.467h-0.085l-3.13-3.589
		c1.517,0.542,3.094,0.88,4.726,0.88s3.215-0.332,4.713-0.874l-3.118,3.577h-0.085l8.062,19.467l-9.572,9.572
		c5.304,0,10.601-0.273,15.394-0.81v-0.006c-0.024,0.329-0.098,0.643-0.098,0.971c0,7.377,4.25,15.57,10.425,19.735
		c-9.944,2.515-18.055,9.164-22.359,16.136c-1.097-0.2-2.211-0.341-3.361-0.341c-10.413,0-18.853,8.446-18.853,18.858
		c0,7.38,4.251,15.576,10.431,19.741c-14.778,3.745-25.727,16.568-25.727,26.073c0,5.627,17.074,8.439,34.148,8.439l-9.561-9.572
		l8.05-19.473h-0.085l-3.13-3.58c1.517,0.535,3.094,0.877,4.726,0.877s3.215-0.329,4.713-0.877l-3.118,3.58h-0.085l8.062,19.473
		l-9.572,9.572c17.074,0,34.154-2.812,34.154-8.439c0-9.499-10.949-22.328-25.721-26.073c6.18-4.165,10.431-12.354,10.431-19.729
		c0-0.347-0.086-0.663-0.11-1.01c0,0.012,0.013,0.023,0.013,0.036c4.792,0.542,10.084,0.815,15.388,0.815l-9.566-9.572l8.056-19.467
		h-0.091l-3.13-3.586c1.522,0.548,3.093,0.877,4.731,0.877c1.632,0,3.209-0.329,4.713-0.865l-3.118,3.574h-0.091l8.062,19.467
		l-9.565,9.572c17.067,0,34.153-2.812,34.153-8.427C204.864,121.053,193.916,108.223,179.143,104.478z M21.677,128.219l-0.797,1.925
		l1.474,1.474l4.052,4.049c-14.94-0.761-22.64-3.635-23.315-5.108c0-8.062,9.916-19.577,23.209-23.011l0.749,0.858l1.921,2.204
		L21.677,128.219z M55.822,182.607l-0.797,1.93l1.47,1.475l4.056,4.061c-14.94-0.767-22.643-3.641-23.315-5.127
		c0-8.05,9.916-19.57,23.208-23.004l0.749,0.864l1.918,2.204L55.822,182.607z M99.32,184.824c-0.691,1.583-8.4,4.481-23.331,5.236
		l4.052-4.049l1.471-1.475l-0.798-1.93l-7.289-17.609l1.906-2.192l0.755-0.871C89.389,165.375,99.302,176.896,99.32,184.824z
		 M84.012,139.143c0,6.395-3.803,13.615-9.052,17.147l-1.416,0.95l-1.623,0.584c-1.258,0.451-2.488,0.683-3.654,0.683
		s-2.369-0.226-3.678-0.694l-1.589-0.566l-1.422-0.956c-5.252-3.532-9.055-10.753-9.055-17.147c0-8.688,7.063-15.746,15.738-15.746
		C76.937,123.396,84.012,130.454,84.012,139.143z M61.854,121.473c0.024-0.013,0.043-0.013,0.067-0.024
		c-5.991,2.155-10.574,7.203-12.008,13.518c-2.426,0.292-5.063,0.548-8.074,0.7l4.053-4.049l1.47-1.474l-0.797-1.925l-7.289-17.621
		l1.909-2.192l0.752-0.865C50.68,109.806,57.88,115.541,61.854,121.473z M40.81,101.89l-1.416,0.953l-1.623,0.581
		c-1.257,0.454-2.487,0.686-3.653,0.686s-2.369-0.226-3.678-0.691l-1.589-0.569l-1.422-0.959c-5.252-3.529-9.055-10.75-9.055-17.147
		c0-8.686,7.063-15.743,15.737-15.743c8.674,0,15.738,7.063,15.738,15.743C49.861,91.146,46.059,98.361,40.81,101.89z
		 M55.822,73.818l-0.797,1.928l1.47,1.47l4.056,4.058c-3.014-0.149-5.645-0.411-8.074-0.703
		c-1.422-6.278-5.967-11.311-11.917-13.487c3.97-5.949,11.161-11.685,19.878-13.935l0.749,0.859l1.918,2.21L55.822,73.818z
		 M71.922,49.033c-1.258,0.457-2.488,0.688-3.654,0.688s-2.369-0.226-3.678-0.694l-1.589-0.566l-1.422-0.962
		c-5.252-3.528-9.055-10.747-9.055-17.147c0-8.683,7.063-15.744,15.738-15.744C76.937,14.607,84,21.674,84,30.351
		c0,6.4-3.803,13.619-9.052,17.147l-1.416,0.956L71.922,49.033z M75.99,81.274l4.052-4.052l1.471-1.471l-0.798-1.927l-7.289-17.613
		l1.906-2.195l0.755-0.868c8.738,2.25,15.945,8.001,19.912,13.923c-5.961,2.177-10.519,7.209-11.941,13.494
		C81.637,80.864,79,81.119,75.99,81.274z M124.122,73.818l-0.804,1.928l1.474,1.47l4.055,4.058
		c-3.014-0.149-5.645-0.411-8.074-0.703c-1.425-6.278-5.967-11.311-11.916-13.487c3.97-5.949,11.161-11.685,19.881-13.935
		l0.743,0.859l1.924,2.21L124.122,73.818z M140.221,49.033c-1.267,0.457-2.49,0.688-3.653,0.688c-1.169,0-2.375-0.226-3.678-0.694
		l-1.596-0.566l-1.425-0.962c-5.249-3.528-9.049-10.747-9.049-17.147c0-8.683,7.063-15.744,15.734-15.744
		c8.678,0,15.741,7.066,15.741,15.744c0,6.4-3.807,13.619-9.055,17.147l-1.413,0.956L140.221,49.033z M144.283,81.274l4.049-4.052
		l1.474-1.471l-0.791-1.927l-7.295-17.613l1.912-2.195l0.755-0.868c8.731,2.25,15.941,8.001,19.905,13.923
		c0.03-0.006,0.055-0.012,0.079-0.018c-6.004,2.158-10.583,7.2-12.02,13.512C149.933,80.864,147.296,81.119,144.283,81.274z
		 M124.122,182.607l-0.804,1.93l1.474,1.475l4.055,4.061c-14.942-0.767-22.642-3.641-23.315-5.127c0-8.05,9.914-19.57,23.206-23.004
		l0.749,0.864l1.918,2.204L124.122,182.607z M167.617,184.824c-0.688,1.583-8.397,4.481-23.334,5.236l4.049-4.049l1.474-1.475
		l-0.791-1.93l-7.295-17.609l1.912-2.192l0.755-0.871C157.685,165.375,167.598,176.896,167.617,184.824z M143.253,156.29
		l-1.412,0.95l-1.62,0.584c-1.267,0.451-2.49,0.683-3.653,0.683c-1.169,0-2.375-0.226-3.678-0.694l-1.596-0.566l-1.425-0.956
		c-5.249-3.532-9.049-10.753-9.049-17.147c0-8.688,7.063-15.746,15.734-15.746c8.678,0,15.741,7.063,15.741,15.746
		C152.308,145.537,148.502,152.758,143.253,156.29z M158.269,128.219l-0.797,1.925l1.467,1.474l4.056,4.049
		c-3.008-0.152-5.65-0.408-8.074-0.7c-1.425-6.284-5.968-11.308-11.917-13.481c3.977-5.955,11.162-11.679,19.882-13.938l0.742,0.858
		l1.925,2.204L158.269,128.219z M174.369,103.43c-1.26,0.454-2.484,0.685-3.653,0.685s-2.368-0.226-3.678-0.691l-1.595-0.566
		l-1.419-0.962c-5.249-3.528-9.055-10.75-9.055-17.147c0-8.686,7.063-15.744,15.74-15.744c8.671,0,15.74,7.063,15.74,15.744
		c0,6.397-3.806,13.619-9.061,17.147l-1.412,0.953L174.369,103.43z M178.424,135.666l4.056-4.049l1.474-1.474l-0.798-1.925
		l-7.289-17.621l1.906-2.192l0.755-0.865c13.299,3.435,23.218,14.955,23.23,22.89C201.064,132.013,193.368,134.905,178.424,135.666z
		"/>
</g>
</svg>