<svg xmlns="http://www.w3.org/2000/svg" height="1.9em" viewBox="0 0 745 512"><!--!Font Awesome Pro 6.5.1 by @fontawesome - https://fontawesome.com License - https://fontawesome.com/license (Commercial License) Copyright 2023 Fonticons, Inc.--><path opacity="1" fill="#000000" d="M41.2 2.3V171.6H77V101.7h72.6v69.9h35.7V2.3H149.6V72.1H77V2.3H41.2zM214.8 171.6h60c17.2 0 32-3.4 44.3-10.2c12.4-6.8 21.9-16.5 28.5-29.2c6.7-12.7 10-27.8 10-45.5c0-17.6-3.3-32.7-10-45.3c-6.6-12.6-16.1-22.3-28.3-29C307 5.7 292.3 2.3 275.3 2.3H214.8V171.6zm58.5-30.7H250.6V33h22.8c10.6 0 19.5 1.9 26.7 5.6s12.6 9.6 16.3 17.5c3.7 7.9 5.5 18.2 5.5 30.7c0 12.6-1.8 22.9-5.5 30.9c-3.6 7.9-9.1 13.8-16.4 17.6c-7.2 3.7-16.1 5.6-26.7 5.6zM428.3 2.3H384.1V171.6h34.7V61h1.4l43.8 109.8h23.6L531.5 61.4h1.4V171.6h34.7V2.3H523.5L476.9 116h-2L428.3 2.3zm168.8 0V171.6h35.8V101.7h68.8V72.1H632.9V31.8h76.3V2.3H597.1zM723.8 343.1c23-17.1 27.9-49.6 11-72.8s-49.3-28.1-72.3-11.1L507.7 374.1H351.8c-11.4 0-20.7-9.4-20.7-20.8s9.3-20.8 20.7-20.8h20.7 82.7c22.9 0 41.4-18.6 41.4-41.7s-18.5-41.7-41.4-41.7H372.5 351.8 250.6c-37.6 0-74.1 12.9-103.4 36.5L89.1 332.4H41.5C18.6 332.4 .1 351 .1 374.1v83.4c0 23.1 18.5 41.7 41.4 41.7H248.4 455.9c37.5 0 74.1-12.1 104.3-34.5L723.9 343.1h-.1z"/></svg>