<svg xmlns="http://www.w3.org/2000/svg" height="32" width="34.5" viewBox="0 0 552 512"><!--!Font Awesome Pro 6.5.1 by @fontawesome - https://fontawesome.com License - https://fontawesome.com/license (Commercial License) Copyright 2023 Fonticons, Inc.--><path d="M544.2 365.7c12.5 12.3 8.9 29.6-8.1 38.7h.1L415 469c-22.4 11.9-49.5 18.3-77.3 18.3H30.9C14 487.3 .3 477.4 .3 465.2V420.9c0-12.2 13.7-22.1 30.6-22.1H66.2l43-24.9c21.7-12.5 48.7-19.4 76.6-19.4H337.3c16.9 0 30.6 9.9 30.6 22.1s-13.7 22.1-30.6 22.1H260.7c-8.4 0-15.3 5-15.3 11.1s6.9 11.1 15.3 11.1H376.1l114.6-61c17-9.1 41-6.4 53.5 5.9zM315.4 59.1H236.6L207.4 15.3C203.1 8.7 207.8 0 215.6 0H336.4c7.9 0 12.6 8.7 8.2 15.3L315.4 59.1zM294.5 163.2c-1-1-2.1-1.9-3.3-2.7c-3.5-2.3-8.1-3.5-13.8-3.5H251.8v6.2h42.7zm6.6 15.4H251.8v5.7h49.2c.1-1 .2-2 .2-3.1c0-.9-.1-1.8-.1-2.7zm-7.9 21.1H251.8v4.8h25.5c5.7 0 10.3-1.1 13.8-3.3c.7-.5 1.4-1 2-1.5zm-56.6-121h78.8c2.3 1.5 5 3.3 8 5.2l.1 0c34.9 22.4 110.1 70.5 110.1 172c0 32.6-26.5 59.1-59.1 59.1H177.5c-32.6 0-59.1-26.5-59.1-59.1c0-101.5 75.2-149.7 110.1-172l.1 0c1-.6 1.9-1.2 2.9-1.8c1.9-1.2 3.6-2.3 5.1-3.3zm111 99.9V163.2H328.5c-.9-2.3-2-4.6-3.2-6.7c-4.2-7.4-10.4-13.2-18.5-17.6c-8.1-4.3-17.8-6.5-29.3-6.5H221.9v30.8H205.6v15.4h16.3v5.7H205.6v15.4h16.3v75.9h29.9V228.8h25.5c11.5 0 21.2-2.1 29.3-6.3c8.1-4.2 14.3-10 18.6-17.1c1.1-1.8 2-3.7 2.9-5.7h19.5V184.4H331.7c.1-1.1 .1-2.1 .1-3.2c0-.8 0-1.7-.1-2.5h15.9z"/></svg>