<svg xmlns="http://www.w3.org/2000/svg" height="1.9em" viewBox="0 0 745 512"><!--!Font Awesome Pro 6.5.1 by @fontawesome - https://fontawesome.com License - https://fontawesome.com/license (Commercial License) Copyright 2023 Fonticons, Inc.--><path opacity="1" fill="#000000" d="M104.9 2.3V171.6h35.8V116.7h30.1c13 0 24.1-2.4 33.2-7.2c9.2-4.8 16.2-11.5 21.1-20.1s7.3-18.5 7.3-29.8s-2.4-21.2-7.2-29.8c-4.7-8.7-11.6-15.4-20.7-20.2c-9-4.9-20-7.4-32.8-7.4H104.9zM140.7 88V31.6h24.1c6.9 0 12.7 1.2 17.2 3.6c4.5 2.3 7.9 5.6 10.1 9.8c2.3 4.2 3.4 9.1 3.4 14.7c0 5.6-1.1 10.5-3.4 14.8c-2.2 4.2-5.6 7.6-10.1 10c-4.5 2.4-10.1 3.6-17 3.6H140.7zM255.6 2.3V171.6h35.8V101.7H364v69.9h35.7V2.3H364V72.1H291.4V2.3H255.6zM465 171.6V2.3H429.3V171.6H465zm142.6-110h36.2c-1.2-9.8-3.8-18.5-7.9-26.1c-4.1-7.6-9.4-14-15.9-19.3c-6.5-5.3-14-9.3-22.4-12.1C589.2 1.4 580.2 0 570.4 0c-14.9 0-28.3 3.4-40.2 10.2c-11.9 6.8-21.3 16.6-28.3 29.6s-10.4 28.7-10.4 47.1c0 18.4 3.4 34.1 10.2 47c6.9 12.9 16.3 22.8 28.1 29.7c11.9 6.8 25.4 10.2 40.5 10.2c10.9 0 20.6-1.6 29.2-4.9c8.6-3.3 16.1-7.8 22.3-13.4c6.3-5.7 11.3-12.1 15-19.3c3.7-7.2 6.1-14.7 7-22.5l-36.2-.2c-.8 4.5-2.3 8.5-4.5 12.1c-2.1 3.5-4.7 6.5-7.9 9c-3.2 2.4-6.9 4.3-11 5.5c-4.1 1.3-8.5 1.9-13.3 1.9c-8.5 0-16.1-2.1-22.6-6.3s-11.6-10.4-15.2-18.6c-3.6-8.2-5.4-18.3-5.4-30.4c0-11.7 1.8-21.7 5.4-29.9c3.6-8.3 8.6-14.5 15.1-18.8c6.5-4.4 14.1-6.5 22.9-6.5c4.8 0 9.3 .7 13.5 2.1c4.2 1.4 7.9 3.4 11.1 6s5.8 5.7 7.9 9.4c2 3.6 3.4 7.8 4 12.5zM723.8 343.1c23-17.1 27.9-49.6 11-72.8s-49.3-28.1-72.3-11.1L507.7 374.1H351.8c-11.4 0-20.7-9.4-20.7-20.8s9.3-20.8 20.7-20.8h20.7 82.7c22.9 0 41.4-18.6 41.4-41.7s-18.5-41.7-41.4-41.7H372.5 351.8 250.6c-37.6 0-74.1 12.9-103.4 36.5L89.1 332.4H41.5C18.6 332.4 .1 351 .1 374.1v83.4c0 23.1 18.5 41.7 41.4 41.7H248.4 455.9c37.5 0 74.1-12.1 104.3-34.5L723.9 343.1h-.1z"/></svg>