<svg xmlns="http://www.w3.org/2000/svg" height="12" width="15" viewBox="0 0 640 512"><!--!Font Awesome Pro 6.5.1 by @fontawesome - https://fontawesome.com License - https://fontawesome.com/license (Commercial License) Copyright 2024 Fonticons, Inc.--><path opacity="1" fill="#f5f5f5" d="M34 267.2c-4.7-12.4-1.1-26.5 8.9-35.3c85.3-74.7 170.6-149.3 256-224c11.3-9.8 27.8-10.6 39.9-1.8s16.5 24.8 10.6 38.5c-25.6 59.8-51.3 119.7-76.9 179.5c37.2 0 74.3 0 111.5 0c3.1 0 6.1 .4 8.9 1.3c-40.6 29.4-68.2 75.8-72.3 128.7c-57.1 50-114.3 100-171.4 150c-11.3 9.8-27.8 10.6-39.9 1.8s-16.5-24.8-10.6-38.5c25.6-59.8 51.3-119.6 76.9-179.4c-37.2 0-74.3 0-111.5 0c-13.3 0-25.3-8.4-30-20.8zM352 368c0-79.5 64.5-144 144-144s144 64.5 144 144s-64.5 144-144 144s-144-64.5-144-144zm64 0c0 8.8 7.2 16 16 16c16 0 32 0 48 0c0 16 0 32 0 48c0 8.8 7.2 16 16 16s16-7.2 16-16c0-16 0-32 0-48c16 0 32 0 48 0c8.8 0 16-7.2 16-16s-7.2-16-16-16c-16 0-32 0-48 0c0-16 0-32 0-48c0-8.8-7.2-16-16-16s-16 7.2-16 16c0 16 0 32 0 48c-16 0-32 0-48 0c-8.8 0-16 7.2-16 16z"/></svg>