<svg xmlns="http://www.w3.org/2000/svg" height="12" width="15" viewBox="0 0 640 512"><!--!Font Awesome Pro 6.5.1 by @fontawesome - https://fontawesome.com License - https://fontawesome.com/license (Commercial License) Copyright 2024 Fonticons, Inc.--><path opacity="1" fill="#f1f2f3" d="M34 267.2c-4.7-12.4-1.1-26.5 8.9-35.3c85.3-74.7 170.6-149.3 256-224c11.3-9.8 27.8-10.6 39.9-1.8s16.5 24.8 10.6 38.5c-25.6 59.8-51.3 119.7-76.9 179.5c37.2 0 74.3 0 111.5 0c13.4 0 25.3 8.3 30 20.7s1.1 26.5-8.9 35.3c-85.3 74.7-170.6 149.3-256 224c-11.3 9.8-27.8 10.6-39.9 1.8s-16.5-24.8-10.6-38.5c25.6-59.8 51.3-119.6 76.9-179.4c-37.2 0-74.3 0-111.5 0c-13.3 0-25.3-8.4-30-20.8zM353.5 492.1c5-20 10-40.1 15-60.1c1.4-5.7 4.3-10.8 8.4-14.9C420 374 463.1 331 506.2 287.9c-.1 0 0 0-.1 0c23.7 23.7 47.3 47.3 71 71C534 402 491 445 447.9 488.1c-4.1 4.1-9.3 7-14.9 8.4c-20 5-40.1 10-60.1 15c-5.5 1.4-11.2-.2-15.2-4.2s-5.6-9.7-4.2-15.2zM528.8 265.3c9.8-9.8 19.6-19.6 29.4-29.4c15.7-15.6 41-15.6 56.6 0c4.8 4.8 9.5 9.5 14.3 14.3c15.6 15.7 15.6 41 0 56.6c-9.8 9.8-19.6 19.6-29.4 29.4l-70.9-70.9z"/></svg>