<svg xmlns="http://www.w3.org/2000/svg" height="1.9em" viewBox="0 0 745 512"><!--!Font Awesome Pro 6.5.1 by @fontawesome - https://fontawesome.com License - https://fontawesome.com/license (Commercial License) Copyright 2023 Fonticons, Inc.--><path opacity="1" fill="#000000" d="M241.8 35.5c5 3.7 7.9 8.9 8.5 15.5h34.3c-.2-10.1-2.9-19-8.1-26.6s-12.6-13.6-22-17.9C245.1 2.1 234.2 0 221.6 0c-12.3 0-23.4 2.1-33.1 6.4s-17.3 10.3-22.9 17.9c-5.5 7.7-8.2 16.6-8.2 26.9c-.1 12.5 4 22.5 12.3 29.8s19.5 12.8 33.8 16.3L222 102c6.2 1.5 11.4 3.1 15.6 5c4.3 1.8 7.5 4 9.8 6.6c2.3 2.6 3.4 5.8 3.4 9.6c0 4.1-1.2 7.7-3.7 10.8s-6 5.6-10.5 7.4c-4.5 1.8-9.7 2.6-15.8 2.6c-6.2 0-11.7-.9-16.6-2.8c-4.8-1.9-8.7-4.8-11.7-8.5c-2.9-3.8-4.5-8.5-4.9-14.2H153c.3 12.2 3.2 22.4 8.8 30.7c5.7 8.2 13.6 14.4 23.6 18.6c10.1 4.2 22 6.3 35.7 6.3c13.8 0 25.5-2.1 35.3-6.2c9.8-4.2 17.3-10.1 22.5-17.6c5.2-7.6 7.9-16.6 7.9-26.9c-.1-7.1-1.3-13.3-3.9-18.8c-2.5-5.5-6-10.2-10.5-14.2s-9.9-7.4-16-10.2s-12.9-5-20.3-6.6l-15.2-3.6c-3.7-.8-7.2-1.8-10.4-3c-3.3-1.2-6.1-2.6-8.6-4.2c-2.5-1.7-4.4-3.6-5.9-5.9c-1.4-2.3-2-4.9-1.9-7.9c0-3.6 1-6.9 3.1-9.8c2.1-2.9 5.2-5.1 9.3-6.7c4-1.7 9-2.5 14.8-2.5c8.6 0 15.4 1.8 20.4 5.5zm152.5 0c5 3.7 7.9 8.9 8.5 15.5h34.3c-.2-10.1-2.9-19-8.1-26.6s-12.6-13.6-22-17.9C397.6 2.1 386.7 0 374.1 0C361.8 0 350.7 2.1 341 6.4s-17.3 10.3-22.9 17.9C312.6 32 309.9 41 310 51.2c-.1 12.5 4 22.5 12.3 29.8s19.5 12.8 33.8 16.3l18.4 4.6c6.2 1.5 11.4 3.1 15.6 5c4.3 1.8 7.5 4 9.8 6.6c2.3 2.6 3.4 5.8 3.4 9.6c0 4.1-1.2 7.7-3.7 10.8s-6 5.6-10.5 7.4c-4.5 1.8-9.7 2.6-15.8 2.6c-6.2 0-11.7-.9-16.6-2.8c-4.8-1.9-8.7-4.8-11.7-8.5c-2.9-3.8-4.5-8.5-4.9-14.2H305.5c.3 12.2 3.2 22.4 8.8 30.7c5.7 8.2 13.6 14.4 23.6 18.6c10.1 4.2 22 6.3 35.7 6.3c13.8 0 25.5-2.1 35.3-6.2c9.8-4.2 17.3-10.1 22.5-17.6c5.2-7.6 7.9-16.6 7.9-26.9c-.1-7.1-1.3-13.3-3.9-18.8c-2.5-5.5-6-10.2-10.5-14.2s-9.9-7.4-16-10.2s-12.9-5-20.3-6.6l-15.2-3.6c-3.7-.8-7.2-1.8-10.4-3c-3.3-1.2-6.1-2.6-8.6-4.2C352 61 350 59 348.6 56.8c-1.4-2.3-2-4.9-1.9-7.9c0-3.6 1-6.9 3.1-9.8c2.1-2.9 5.2-5.1 9.3-6.7c4-1.7 9-2.5 14.8-2.5c8.6 0 15.4 1.8 20.4 5.5zm152.5 0c5 3.7 7.9 8.9 8.5 15.5h34.3c-.2-10.1-2.9-19-8.1-26.6s-12.6-13.6-22-17.9C550.1 2.1 539.2 0 526.6 0c-12.3 0-23.4 2.1-33.1 6.4s-17.3 10.3-22.9 17.9c-5.5 7.7-8.2 16.6-8.2 26.9c-.1 12.5 4 22.5 12.3 29.8s19.5 12.8 33.8 16.3L527 102c6.2 1.5 11.4 3.1 15.6 5c4.3 1.8 7.5 4 9.8 6.6c2.3 2.6 3.4 5.8 3.4 9.6c0 4.1-1.2 7.7-3.7 10.8s-6 5.6-10.5 7.4c-4.5 1.8-9.7 2.6-15.8 2.6c-6.2 0-11.7-.9-16.6-2.8c-4.8-1.9-8.7-4.8-11.7-8.5c-2.9-3.8-4.5-8.5-4.9-14.2H458c.3 12.2 3.2 22.4 8.8 30.7c5.7 8.2 13.6 14.4 23.6 18.6c10.1 4.2 22 6.3 35.7 6.3c13.8 0 25.5-2.1 35.3-6.2c9.8-4.2 17.3-10.1 22.5-17.6c5.2-7.6 7.9-16.6 7.9-26.9c-.1-7.1-1.3-13.3-3.9-18.8c-2.5-5.5-6-10.2-10.5-14.2s-9.9-7.4-16-10.2s-12.9-5-20.3-6.6l-15.2-3.6c-3.7-.8-7.2-1.8-10.4-3c-1.9-.7-3.6-1.5-5.3-2.3c-1.2-.6-2.3-1.2-3.3-1.9c-2.5-1.7-4.4-3.6-5.9-5.9c-1.4-2.3-2-4.9-1.9-7.9c0-3.6 1-6.9 3.1-9.8c2.1-2.9 5.2-5.1 9.3-6.7c4-1.7 9-2.5 14.8-2.5c8.6 0 15.4 1.8 20.4 5.5zm177 307.6c23-17.1 27.9-49.6 11-72.8s-49.3-28.1-72.3-11.1L507.7 374.1H351.8c-11.4 0-20.7-9.4-20.7-20.8s9.3-20.8 20.7-20.8h20.7 82.7c22.9 0 41.4-18.6 41.4-41.7s-18.5-41.7-41.4-41.7H372.5 351.8 250.6c-37.6 0-74.1 12.9-103.4 36.5L89.1 332.4H41.5C18.6 332.4 .1 351 .1 374.1v83.4c0 23.1 18.5 41.7 41.4 41.7H248.4 455.9c37.5 0 74.1-12.1 104.3-34.5L723.9 343.1h-.1z"/></svg>