<svg xmlns="http://www.w3.org/2000/svg" height="32" width="32" viewBox="0 0 512 512"><!--!Font Awesome Pro 6.5.1 by @fontawesome - https://fontawesome.com License - https://fontawesome.com/license (Commercial License) Copyright 2024 Fonticons, Inc.--><path class="fa-secondary" opacity="0.4" fill="#0d0d0d" d="M128 160V96h64v64H448v64H192v64H448v64H192v64H128V352H64V288h64V224H64V160h64z"/><path class="fa-primary" opacity="1" fill="#0d0d0d" d="M64 32C28.7 32 0 60.7 0 96V416c0 35.3 28.7 64 64 64H448c35.3 0 64-28.7 64-64V96c0-35.3-28.7-64-64-64H64zM448 96V416H64V96H448z"/></svg>