<svg xmlns="http://www.w3.org/2000/svg" height="1.9em" viewBox="0 0 745 512"><!--!Font Awesome Pro 6.5.1 by @fontawesome - https://fontawesome.com License - https://fontawesome.com/license (Commercial License) Copyright 2023 Fonticons, Inc.--><path opacity="1" fill="#000000" d="M18.7 2.3L67.1 171.6H102L134.2 60.9h1.3l32.2 110.7h34.9L251 2.3H211.9l-28 117.9h-1.5L151.6 2.3H118.1L87.2 119.9H85.8L57.8 2.3H18.7zm245 0V31.8h51.8V171.6h35.4V31.8h51.8V2.3h-139zm132 169.3h38.3L446.7 133h61.1l12.5 38.6h38.3L500.3 2.3H454.2L395.8 171.6zM498.7 105h-43l20.8-64h1.3l20.8 64zm148-45L612.6 2.3H572l52 84.6-53 84.6h41l34.7-57.8H648l34.7 57.8h41.2L671.1 86.9 722.7 2.3H682.3L648 60h-1.3zm77.1 283.1c23-17.1 27.9-49.6 11-72.8s-49.3-28.1-72.3-11.1L507.7 374.1H351.8c-11.4 0-20.7-9.4-20.7-20.8s9.3-20.8 20.7-20.8h20.7 82.7c22.9 0 41.4-18.6 41.4-41.7s-18.5-41.7-41.4-41.7H372.5 351.8 250.6c-37.6 0-74.1 12.9-103.4 36.5L89.1 332.4H41.5C18.6 332.4 .1 351 .1 374.1v83.4c0 23.1 18.5 41.7 41.4 41.7H248.4 455.9c37.5 0 74.1-12.1 104.3-34.5L723.9 343.1h-.1z"/></svg>